<svg width="106" height="25" viewBox="0 0 106 25" fill="none" xmlns="http://www.w3.org/2000/svg">
<g clip-path="url(#clip0)">
<path d="M41.9341 19.2227V6.62273H50.6564V9.00454H44.8415V11.4773H50.004V13.8045H44.8415V16.8409H51.085V19.2227H41.9341Z" fill="#322153"/>
<path d="M52.3659 14.4409C52.3659 13.75 52.4777 13.1015 52.7013 12.4954C52.9375 11.8773 53.2729 11.3439 53.7078 10.8955C54.1427 10.4348 54.6707 10.0712 55.2919 9.80454C55.9132 9.53789 56.6214 9.40454 57.4167 9.40454C57.9384 9.40454 58.4171 9.45301 58.8516 9.55C59.2866 9.63483 59.7089 9.7621 60.1189 9.93181L59.5411 12.0954C59.2802 11.9985 58.9948 11.9136 58.6838 11.8409C58.3734 11.7682 58.0255 11.7318 57.6403 11.7318C56.8203 11.7318 56.2052 11.9803 55.7951 12.4773C55.3976 12.9743 55.1988 13.6288 55.1988 14.4409C55.1988 15.3015 55.3852 15.9682 55.7579 16.4409C56.1431 16.9136 56.8078 17.15 57.7521 17.15C58.0876 17.15 58.4479 17.1197 58.8329 17.0591C59.2185 16.9985 59.5726 16.9015 59.8952 16.7682L60.2866 18.9864C59.964 19.1197 59.5598 19.2348 59.0752 19.3318C58.5906 19.4288 58.0565 19.4773 57.4726 19.4773C56.578 19.4773 55.8076 19.35 55.1615 19.0954C54.5154 18.8288 53.9811 18.4712 53.5587 18.0227C53.1486 17.5743 52.8443 17.047 52.6455 16.4409C52.4591 15.8227 52.3659 15.1561 52.3659 14.4409Z" fill="#322153"/>
<path d="M70.847 14.4227C70.847 15.1743 70.7352 15.8652 70.5115 16.4954C70.2879 17.1136 69.9647 17.647 69.5424 18.0954C69.1196 18.5318 68.6105 18.8712 68.0141 19.1136C67.43 19.3561 66.7713 19.4773 66.0386 19.4773C65.3175 19.4773 64.6594 19.3561 64.063 19.1136C63.4789 18.8712 62.9756 18.5318 62.5534 18.0954C62.1306 17.647 61.8015 17.1136 61.5656 16.4954C61.3292 15.8652 61.2115 15.1743 61.2115 14.4227C61.2115 13.6712 61.3292 12.9864 61.5656 12.3682C61.8137 11.75 62.1492 11.2227 62.572 10.7864C63.0065 10.35 63.5161 10.0106 64.1003 9.76818C64.6967 9.52573 65.3426 9.40454 66.0386 9.40454C66.7468 9.40454 67.3927 9.52573 67.9769 9.76818C68.5733 10.0106 69.0823 10.35 69.5051 10.7864C69.9274 11.2227 70.2564 11.75 70.4929 12.3682C70.7288 12.9864 70.847 13.6712 70.847 14.4227ZM68.0141 14.4227C68.0141 13.5864 67.84 12.9318 67.4923 12.4591C67.1568 11.9743 66.6722 11.7318 66.0386 11.7318C65.4049 11.7318 64.9139 11.9743 64.5662 12.4591C64.2179 12.9318 64.0444 13.5864 64.0444 14.4227C64.0444 15.2591 64.2179 15.9257 64.5662 16.4227C64.9139 16.9076 65.4049 17.15 66.0386 17.15C66.6722 17.15 67.1568 16.9076 67.4923 16.4227C67.84 15.9257 68.0141 15.2591 68.0141 14.4227Z" fill="#322153"/>
<path d="M76.9117 19.4045C76.1045 19.3924 75.4458 19.3076 74.9362 19.15C74.4394 18.9924 74.0416 18.7743 73.7434 18.4954C73.458 18.2045 73.2588 17.8591 73.147 17.4591C73.048 17.047 72.9979 16.5864 72.9979 16.0773V5.55L75.7749 5.11363V15.5318C75.7749 15.7743 75.7935 15.9924 75.8308 16.1864C75.868 16.3803 75.9368 16.5439 76.0358 16.6773C76.1476 16.8106 76.3031 16.9197 76.5017 17.0045C76.7009 17.0894 76.9677 17.1439 77.3031 17.1682L76.9117 19.4045Z" fill="#322153"/>
<path d="M78.4289 14.5136C78.4289 13.6652 78.5594 12.9257 78.8203 12.2954C79.094 11.653 79.4482 11.1197 79.8826 10.6954C80.3177 10.2712 80.8145 9.95 81.3736 9.73181C81.9456 9.51363 82.5292 9.40454 83.1255 9.40454C84.5175 9.40454 85.6171 9.82272 86.4244 10.6591C87.2322 11.4833 87.6358 12.7015 87.6358 14.3136C87.6358 14.4712 87.63 14.647 87.6171 14.8409C87.6049 15.0227 87.5927 15.1864 87.5799 15.3318H81.2804C81.3428 15.8894 81.6101 16.3318 82.0818 16.6591C82.5542 16.9864 83.1879 17.15 83.9829 17.15C84.4925 17.15 84.9893 17.1076 85.4739 17.0227C85.9712 16.9257 86.3749 16.8106 86.6853 16.6773L87.058 18.8773C86.9089 18.95 86.7103 19.0227 86.4616 19.0954C86.2135 19.1682 85.934 19.2288 85.6229 19.2773C85.3248 19.3379 85.0021 19.3864 84.6538 19.4227C84.3061 19.4591 83.9584 19.4773 83.6101 19.4773C82.7283 19.4773 81.9578 19.35 81.2991 19.0954C80.6532 18.8409 80.1127 18.4954 79.6776 18.0591C79.2554 17.6106 78.9385 17.0833 78.7271 16.4773C78.5285 15.8712 78.4289 15.2166 78.4289 14.5136ZM84.952 13.4773C84.9398 13.247 84.8961 13.0227 84.8215 12.8045C84.7598 12.5864 84.6538 12.3924 84.5047 12.2227C84.3684 12.053 84.1879 11.9136 83.9642 11.8045C83.7534 11.6954 83.4861 11.6409 83.1628 11.6409C82.8524 11.6409 82.5851 11.6954 82.3614 11.8045C82.1378 11.9015 81.9514 12.0348 81.8023 12.2045C81.6532 12.3743 81.5355 12.5743 81.4482 12.8045C81.3736 13.0227 81.3177 13.247 81.2804 13.4773H84.952Z" fill="#322153"/>
<path d="M89.6859 7.27728L92.4629 6.84091V9.65909H95.799V11.9136H92.4629V15.2773C92.4629 15.847 92.5619 16.3015 92.7611 16.6409C92.9719 16.9803 93.3883 17.15 94.0098 17.15C94.308 17.15 94.612 17.1257 94.923 17.0773C95.2457 17.0166 95.538 16.9379 95.799 16.8409L96.1903 18.95C95.8549 19.0834 95.4821 19.1985 95.0721 19.2955C94.6621 19.3924 94.1589 19.4409 93.5625 19.4409C92.8042 19.4409 92.1769 19.3439 91.6801 19.15C91.1827 18.9439 90.7855 18.6652 90.4873 18.3136C90.1891 17.95 89.9777 17.5136 89.8536 17.0045C89.7418 16.4955 89.6859 15.9318 89.6859 15.3136V7.27728Z" fill="#322153"/>
<path d="M101.442 17.3318C101.716 17.3318 101.977 17.3257 102.225 17.3136C102.473 17.3015 102.672 17.2833 102.822 17.2591V15.2045C102.71 15.1803 102.542 15.1561 102.318 15.1318C102.094 15.1076 101.889 15.0954 101.703 15.0954C101.442 15.0954 101.194 15.1136 100.957 15.15C100.734 15.1743 100.535 15.2288 100.361 15.3136C100.187 15.3985 100.051 15.5136 99.9516 15.6591C99.852 15.8045 99.8019 15.9864 99.8019 16.2045C99.8019 16.6288 99.9452 16.9257 100.231 17.0954C100.529 17.253 100.933 17.3318 101.442 17.3318ZM101.218 9.40454C102.038 9.40454 102.722 9.49545 103.269 9.67727C103.815 9.85909 104.25 10.1197 104.573 10.4591C104.909 10.7985 105.145 11.2106 105.282 11.6954C105.418 12.1803 105.486 12.7197 105.486 13.3136V18.95C105.089 19.0348 104.536 19.1318 103.828 19.2409C103.119 19.3621 102.262 19.4227 101.256 19.4227C100.623 19.4227 100.045 19.3682 99.5229 19.2591C99.0133 19.15 98.5718 18.9743 98.1991 18.7318C97.8264 18.4773 97.541 18.15 97.3418 17.75C97.1432 17.35 97.0436 16.8591 97.0436 16.2773C97.0436 15.7197 97.1554 15.247 97.3796 14.8591C97.6155 14.4712 97.9259 14.1621 98.3115 13.9318C98.6965 13.7015 99.1374 13.5379 99.6348 13.4409C100.132 13.3318 100.647 13.2773 101.182 13.2773C101.542 13.2773 101.858 13.2955 102.132 13.3318C102.418 13.3561 102.648 13.3924 102.822 13.4409V13.1864C102.822 12.7257 102.678 12.3561 102.393 12.0773C102.107 11.7985 101.61 11.6591 100.902 11.6591C100.43 11.6591 99.9638 11.6954 99.5037 11.7682C99.0442 11.8288 98.6464 11.9197 98.3115 12.0409L97.9568 9.85909C98.1187 9.81062 98.3173 9.7621 98.5538 9.71363C98.8019 9.65301 99.0692 9.60454 99.3546 9.56818C99.6406 9.51971 99.9388 9.48335 100.25 9.45909C100.572 9.42272 100.896 9.40454 101.218 9.40454Z" fill="#322153"/>
<path d="M8.52777 1.05092L5.86327 6.01483C5.69121 6.33528 5.80451 6.73602 6.11808 6.91619L10.2902 9.31375C10.6082 9.49642 11.0123 9.38409 11.1931 9.06273L16.2929 0.000366211H10.2739C9.54537 0.000366211 8.87524 0.403507 8.52777 1.05092Z" fill="#29A361"/>
<path d="M16.2925 0L11.193 9.0625C11.0119 9.38375 10.608 9.49636 10.2902 9.31381L9.2012 8.68824C9.46673 8.73148 9.74291 8.60812 9.88351 8.3579L14.5877 0H16.2925Z" fill="#248F55"/>
<path d="M21.8726 4.80637L20.0349 1.10739C19.6977 0.428735 19.0107 0.000366211 18.2596 0.000366211H12.946L17.0257 6.99807C17.0124 7.00415 16.9989 7.01023 16.9855 7.01631C16.7289 7.13307 16.7394 7.50528 17.0021 7.60727L20.525 8.975C20.6882 9.03841 20.8714 8.95597 20.9341 8.79097L22.2921 5.21564C22.3925 4.95117 22.1288 4.69597 21.8726 4.80637Z" fill="#34CB79"/>
<path d="M22.2921 5.21534L20.9337 8.79063C20.8713 8.95608 20.6878 9.03858 20.5248 8.97489L19.4588 8.56085L20.7295 5.21534C20.8018 5.0256 20.6864 4.84084 20.5209 4.79237C20.3632 4.74617 20.2286 4.64178 20.1549 4.49351L18.4723 1.10724C18.1353 0.42881 17.4485 0 16.6971 0H18.2596C19.0105 0 19.6973 0.42881 20.0348 1.10724L21.8725 4.80651C22.129 4.69616 22.3923 4.95091 22.2921 5.21534Z" fill="#2FB86E"/>
<path d="M18.3225 19.0678C18.273 18.8624 18.0109 18.7744 17.851 18.9361L15.0976 21.7198C14.9877 21.8308 14.9877 22.0108 15.0976 22.1219L17.8616 24.9162C18.0205 25.0769 18.2799 24.9911 18.3321 24.7893H22.3968C23.1451 24.7893 23.83 24.3641 24.1685 23.6894L26.4878 19.0677H18.3225V19.0678Z" fill="#29A361"/>
<path d="M21.7538 19.0678L23.0717 21.084C23.3697 21.5398 23.4026 22.1223 23.1581 22.6095L22.616 23.6895C22.278 24.364 21.5928 24.7894 20.8447 24.7894H22.3967C23.1448 24.7894 23.8299 24.364 24.1686 23.6895L26.4877 19.0679H21.7538V19.0678Z" fill="#248F55"/>
<path d="M12.7756 24.2579V19.3384C12.7756 18.9687 12.4791 18.6689 12.1133 18.6689H1.20438L4.01178 23.8796C4.35975 24.5255 5.02901 24.9274 5.75647 24.9274H12.1133C12.479 24.9274 12.7756 24.6277 12.7756 24.2579Z" fill="#29A361"/>
<path d="M5.83089 18.6693L3.40821 22.7598L1.20438 18.6693H5.83089Z" fill="#248F55"/>
<path d="M12.7753 19.3385V24.2582C12.7753 24.6278 12.4789 24.9275 12.1133 24.9275H10.3757C10.7413 24.9275 11.0378 24.6278 11.0378 24.2582V19.3385C11.0378 18.9689 10.7413 18.6692 10.3757 18.6692H12.1133C12.4789 18.6691 12.7753 18.9689 12.7753 19.3385Z" fill="#248F55"/>
<path d="M7.44603 14.3219L6.95616 10.5947C6.93193 10.4106 6.76466 10.2812 6.58254 10.3056L2.88171 10.8028C2.60302 10.8402 2.49917 11.1829 2.69005 11.3736L0.354414 14.7771C-0.0738268 15.4011 -0.11729 16.2159 0.242044 16.8828L2.78369 21.6004L6.91062 14.6311C6.91207 14.6322 6.91347 14.6333 6.91499 14.6344C7.15052 14.8152 7.48494 14.6183 7.44603 14.3219Z" fill="#34CB79"/>
<path d="M6.91474 14.6344C6.91358 14.6332 6.91195 14.6322 6.91078 14.631L2.78372 21.6002L1.93494 20.0249L5.29403 14.3515L5.38718 14.1941C5.43812 14.1081 5.53766 14.0709 5.63501 14.09C5.63551 14.0901 5.636 14.0902 5.63649 14.0903C5.84362 14.1276 6.05603 13.9532 6.02423 13.7137L5.5939 10.4382L6.58218 10.3057C6.76448 10.2812 6.9321 10.4109 6.95627 10.5945L7.4462 14.3223C7.4851 14.6185 7.15039 14.8152 6.91474 14.6344Z" fill="#2FB86E"/>
<path d="M27.6042 14.521L24.4093 9.84074C24.2134 9.55364 23.8321 9.46677 23.5333 9.64114L19.3697 12.0702C19.0392 12.263 18.9378 12.6974 19.1482 13.0193L25.0177 21.9972L27.7409 16.5706C28.0705 15.9138 28.0181 15.1272 27.6042 14.521Z" fill="#34CB79"/>
<path d="M27.7408 16.5707L25.0172 21.997L24.1038 20.5992L26.1254 16.5707C26.455 15.9139 26.4027 15.1274 25.9887 14.5211L22.9068 10.007L23.5334 9.6413C23.8321 9.4667 24.2135 9.55369 24.4092 9.8409L27.6042 14.5212C28.0181 15.1274 28.0704 15.9139 27.7408 16.5707Z" fill="#2FB86E"/>
</g>
<defs>
<clipPath id="clip0">
<rect width="106" height="25" fill="white"/>
</clipPath>
</defs>
</svg>
