<svg width="127" height="30" viewBox="0 0 127 30" fill="none" xmlns="http://www.w3.org/2000/svg">
<g clip-path="url(#clip0)">
<path d="M50.2418 23.0673V7.94727H60.692V10.8054H53.7252V13.7727H59.9105V16.5654H53.7252V20.2091H61.2056V23.0673H50.2418Z" fill="#322153"/>
<path d="M62.7402 17.3291C62.7402 16.5 62.8742 15.7218 63.1422 14.9945C63.4251 14.2527 63.827 13.6127 64.348 13.0745C64.869 12.5218 65.5017 12.0854 66.246 11.7654C66.9903 11.4455 67.8389 11.2854 68.7916 11.2854C69.4168 11.2854 69.9903 11.3436 70.5108 11.46C71.0321 11.5618 71.538 11.7145 72.0292 11.9182L71.337 14.5145C71.0244 14.3981 70.6825 14.2964 70.3099 14.2091C69.9379 14.1218 69.5211 14.0782 69.0596 14.0782C68.0771 14.0782 67.3402 14.3763 66.8489 14.9727C66.3726 15.5691 66.1343 16.3546 66.1343 17.3291C66.1343 18.3618 66.3577 19.1618 66.8043 19.7291C67.2658 20.2964 68.0622 20.58 69.1936 20.58C69.5955 20.58 70.0272 20.5436 70.4885 20.4709C70.9504 20.3981 71.3747 20.2818 71.7613 20.1218L72.2302 22.7836C71.8436 22.9436 71.3593 23.0818 70.7788 23.1982C70.1982 23.3146 69.5582 23.3727 68.8586 23.3727C67.7868 23.3727 66.8638 23.22 66.0898 22.9145C65.3156 22.5946 64.6755 22.1654 64.1693 21.6273C63.6781 21.0891 63.3134 20.4564 63.0752 19.7291C62.8519 18.9873 62.7402 18.1873 62.7402 17.3291Z" fill="#322153"/>
<path d="M84.8828 17.3073C84.8828 18.2091 84.7488 19.0382 84.4808 19.7945C84.2129 20.5364 83.8256 21.1764 83.3197 21.7145C82.8131 22.2382 82.2032 22.6454 81.4886 22.9364C80.7887 23.2273 79.9995 23.3727 79.1217 23.3727C78.2578 23.3727 77.4693 23.2273 76.7548 22.9364C76.0549 22.6454 75.452 22.2382 74.9461 21.7145C74.4394 21.1764 74.0452 20.5364 73.7626 19.7945C73.4793 19.0382 73.3383 18.2091 73.3383 17.3073C73.3383 16.4054 73.4793 15.5836 73.7626 14.8418C74.0598 14.1 74.4618 13.4673 74.9684 12.9436C75.4889 12.42 76.0995 12.0127 76.7994 11.7218C77.514 11.4309 78.2878 11.2854 79.1217 11.2854C79.9702 11.2854 80.7441 11.4309 81.444 11.7218C82.1585 12.0127 82.7684 12.42 83.275 12.9436C83.7809 13.4673 84.1752 14.1 84.4585 14.8418C84.7411 15.5836 84.8828 16.4054 84.8828 17.3073ZM81.4886 17.3073C81.4886 16.3036 81.28 15.5182 80.8634 14.9509C80.4615 14.3691 79.8809 14.0782 79.1217 14.0782C78.3625 14.0782 77.7742 14.3691 77.3577 14.9509C76.9404 15.5182 76.7324 16.3036 76.7324 17.3073C76.7324 18.3109 76.9404 19.1109 77.3577 19.7073C77.7742 20.2891 78.3625 20.58 79.1217 20.58C79.8809 20.58 80.4615 20.2891 80.8634 19.7073C81.28 19.1109 81.4886 18.3109 81.4886 17.3073Z" fill="#322153"/>
<path d="M92.149 23.2855C91.1818 23.2709 90.3926 23.1691 89.782 22.98C89.1868 22.7909 88.7102 22.5291 88.3529 22.1945C88.011 21.8455 87.7724 21.4309 87.6384 20.9509C87.5198 20.4564 87.4597 19.9036 87.4597 19.2927V6.66L90.7869 6.13637V18.6382C90.7869 18.9291 90.8092 19.1909 90.8539 19.4236C90.8985 19.6563 90.9809 19.8527 91.0995 20.0127C91.2335 20.1728 91.4198 20.3037 91.6577 20.4055C91.8964 20.5073 92.216 20.5727 92.6179 20.6018L92.149 23.2855Z" fill="#322153"/>
<path d="M93.9667 17.4164C93.9667 16.3982 94.123 15.5109 94.4357 14.7545C94.7636 13.9836 95.1879 13.3436 95.7085 12.8345C96.2297 12.3254 96.8249 11.94 97.4948 11.6782C98.1801 11.4164 98.8793 11.2854 99.5938 11.2854C101.262 11.2854 102.579 11.7873 103.546 12.7909C104.514 13.78 104.998 15.2418 104.998 17.1764C104.998 17.3654 104.991 17.5764 104.975 17.8091C104.961 18.0273 104.946 18.2236 104.931 18.3982H97.3832C97.4578 19.0672 97.7781 19.5982 98.3434 19.9909C98.9093 20.3836 99.6685 20.58 100.621 20.58C101.232 20.58 101.827 20.5291 102.407 20.4273C103.003 20.3109 103.487 20.1727 103.859 20.0127L104.305 22.6527C104.127 22.74 103.889 22.8273 103.591 22.9145C103.294 23.0018 102.959 23.0746 102.586 23.1327C102.229 23.2055 101.842 23.2636 101.425 23.3073C101.008 23.3509 100.592 23.3727 100.174 23.3727C99.1179 23.3727 98.1947 23.22 97.4055 22.9145C96.6316 22.6091 95.9841 22.1945 95.4628 21.6709C94.9569 21.1327 94.5773 20.5 94.324 19.7727C94.0861 19.0454 93.9667 18.26 93.9667 17.4164ZM101.782 16.1727C101.767 15.8964 101.715 15.6273 101.626 15.3654C101.552 15.1036 101.425 14.8709 101.246 14.6673C101.083 14.4636 100.867 14.2964 100.599 14.1654C100.346 14.0345 100.026 13.9691 99.6385 13.9691C99.2665 13.9691 98.9463 14.0345 98.6783 14.1654C98.4103 14.2818 98.1871 14.4418 98.0084 14.6454C97.8298 14.8491 97.6888 15.0891 97.5841 15.3654C97.4948 15.6273 97.4278 15.8964 97.3832 16.1727H101.782Z" fill="#322153"/>
<path d="M107.454 8.73273L110.781 8.20909V11.5909H114.778V14.2964H110.781V18.3327C110.781 19.0164 110.9 19.5618 111.138 19.9691C111.391 20.3763 111.89 20.58 112.634 20.58C112.992 20.58 113.356 20.5509 113.729 20.4927C114.115 20.42 114.465 20.3255 114.778 20.2091L115.247 22.74C114.845 22.9 114.398 23.0382 113.907 23.1545C113.416 23.2709 112.813 23.3291 112.098 23.3291C111.19 23.3291 110.438 23.2127 109.843 22.98C109.247 22.7327 108.771 22.3982 108.414 21.9764C108.057 21.54 107.803 21.0164 107.655 20.4055C107.521 19.7945 107.454 19.1182 107.454 18.3764V8.73273Z" fill="#322153"/>
<path d="M121.539 20.7982C121.867 20.7982 122.18 20.7909 122.478 20.7764C122.775 20.7618 123.013 20.74 123.192 20.7109V18.2454C123.058 18.2163 122.856 18.1873 122.588 18.1582C122.321 18.1291 122.075 18.1145 121.852 18.1145C121.539 18.1145 121.242 18.1364 120.958 18.18C120.69 18.2091 120.453 18.2746 120.244 18.3764C120.036 18.4781 119.872 18.6164 119.753 18.7909C119.634 18.9654 119.574 19.1836 119.574 19.4454C119.574 19.9546 119.746 20.3109 120.088 20.5145C120.445 20.7036 120.929 20.7982 121.539 20.7982ZM121.271 11.2854C122.254 11.2854 123.073 11.3945 123.728 11.6127C124.383 11.8309 124.904 12.1437 125.29 12.5509C125.692 12.9582 125.976 13.4527 126.14 14.0345C126.303 14.6163 126.385 15.2636 126.385 15.9764V22.74C125.909 22.8418 125.246 22.9582 124.398 23.0891C123.549 23.2345 122.522 23.3073 121.316 23.3073C120.557 23.3073 119.865 23.2418 119.24 23.1109C118.629 22.98 118.1 22.7691 117.654 22.4782C117.207 22.1727 116.865 21.78 116.626 21.3C116.389 20.82 116.269 20.2309 116.269 19.5327C116.269 18.8637 116.403 18.2964 116.672 17.8309C116.954 17.3654 117.326 16.9945 117.788 16.7182C118.25 16.4418 118.778 16.2455 119.374 16.1291C119.969 15.9982 120.587 15.9327 121.227 15.9327C121.658 15.9327 122.038 15.9545 122.365 15.9982C122.708 16.0273 122.983 16.0709 123.192 16.1291V15.8236C123.192 15.2709 123.02 14.8273 122.679 14.4927C122.336 14.1582 121.741 13.9909 120.891 13.9909C120.326 13.9909 119.768 14.0345 119.217 14.1218C118.666 14.1946 118.19 14.3037 117.788 14.4491L117.363 11.8309C117.557 11.7727 117.795 11.7145 118.079 11.6564C118.376 11.5836 118.696 11.5254 119.038 11.4818C119.381 11.4237 119.738 11.38 120.111 11.3509C120.497 11.3073 120.884 11.2854 121.271 11.2854Z" fill="#322153"/>
<path d="M10.2172 1.26111L7.02484 7.2178C6.8187 7.60234 6.95444 8.08323 7.33013 8.29944L12.3288 11.1765C12.7098 11.3957 13.194 11.2609 13.4106 10.8753L19.5207 0.000442505H12.3093C11.4364 0.000442505 10.6335 0.484212 10.2172 1.26111Z" fill="#29A361"/>
<path d="M19.5203 0L13.4105 10.875C13.1935 11.2605 12.7096 11.3956 12.3288 11.1766L11.0241 10.4259C11.3422 10.4778 11.6731 10.3297 11.8416 10.0295L17.4777 0H19.5203Z" fill="#248F55"/>
<path d="M26.2059 5.76765L24.004 1.32887C23.6001 0.514485 22.777 0.000442505 21.877 0.000442505H15.5107L20.3987 8.39768C20.3827 8.40498 20.3666 8.41228 20.3506 8.41957C20.0431 8.55968 20.0557 9.00634 20.3704 9.12873L24.5912 10.77C24.7868 10.8461 25.0063 10.7472 25.0814 10.5492L26.7084 6.25877C26.8287 5.94141 26.5129 5.63517 26.2059 5.76765Z" fill="#34CB79"/>
<path d="M26.7084 6.2584L25.0809 10.5488C25.0062 10.7473 24.7864 10.8463 24.591 10.7699L23.3139 10.273L24.8363 6.2584C24.9228 6.03072 24.7846 5.80901 24.5863 5.75085C24.3974 5.6954 24.2361 5.57014 24.1479 5.39221L22.1318 1.32869C21.7281 0.514572 20.9052 0 20.0049 0H21.8771C22.7768 0 23.5996 0.514572 24.004 1.32869L26.2057 5.76781C26.5131 5.63539 26.8285 5.9411 26.7084 6.2584Z" fill="#2FB86E"/>
<path d="M21.9524 22.8813C21.8931 22.6349 21.5791 22.5293 21.3875 22.7233L18.0886 26.0637C17.957 26.197 17.957 26.413 18.0886 26.5462L21.4002 29.8995C21.5906 30.0922 21.9014 29.9894 21.9639 29.7471H26.8338C27.7305 29.7471 28.551 29.237 28.9566 28.4273L31.7354 22.8813H21.9524V22.8813Z" fill="#29A361"/>
<path d="M26.0635 22.8814L27.6425 25.3008C27.9995 25.8478 28.039 26.5468 27.746 27.1315L27.0966 28.4274C26.6916 29.2368 25.8707 29.7472 24.9743 29.7472H26.8338C27.7301 29.7472 28.5509 29.2368 28.9567 28.4274L31.7353 22.8815H26.0635V22.8814Z" fill="#248F55"/>
<path d="M15.3066 29.1095V23.2061C15.3066 22.7624 14.9513 22.4026 14.5131 22.4026H1.44296L4.80654 28.6555C5.22346 29.4306 6.0253 29.9129 6.89688 29.9129H14.5131C14.9513 29.9129 15.3066 29.5533 15.3066 29.1095Z" fill="#29A361"/>
<path d="M6.98605 22.4032L4.0834 27.3118L1.44296 22.4032H6.98605Z" fill="#248F55"/>
<path d="M15.3063 23.2062V29.1098C15.3063 29.5534 14.9511 29.913 14.5131 29.913H12.4313C12.8694 29.913 13.2245 29.5534 13.2245 29.1098V23.2062C13.2245 22.7626 12.8694 22.403 12.4313 22.403H14.5131C14.9511 22.403 15.3063 22.7626 15.3063 23.2062Z" fill="#248F55"/>
<path d="M8.92119 17.1863L8.33427 12.7137C8.30524 12.4927 8.10483 12.3374 7.88663 12.3667L3.45261 12.9633C3.11872 13.0083 2.99428 13.4195 3.22299 13.6484L0.424628 17.7325C-0.0884529 18.4814 -0.140526 19.4591 0.289996 20.2594L3.33518 25.9205L8.2797 17.5573C8.28145 17.5586 8.28312 17.5599 8.28494 17.5613C8.56713 17.7782 8.96781 17.5419 8.92119 17.1863Z" fill="#34CB79"/>
<path d="M8.28467 17.5613C8.28327 17.5599 8.28132 17.5586 8.27992 17.5572L3.33523 25.9202L2.3183 24.0299L6.34287 17.2218L6.45447 17.0329C6.51551 16.9297 6.63477 16.8851 6.75141 16.908C6.752 16.9081 6.75259 16.9082 6.75318 16.9083C7.00134 16.9531 7.25583 16.7438 7.21773 16.4565L6.70215 12.5258L7.88622 12.3668C8.10464 12.3375 8.30546 12.4931 8.33442 12.7135L8.92141 17.1867C8.96803 17.5422 8.567 17.7783 8.28467 17.5613Z" fill="#2FB86E"/>
<path d="M33.0729 17.4252L29.2451 11.8089C29.0103 11.4644 28.5536 11.3601 28.1955 11.5694L23.2071 14.4842C22.8111 14.7155 22.6897 15.2369 22.9417 15.6231L29.974 26.3967L33.2367 19.8847C33.6316 19.0966 33.5688 18.1527 33.0729 17.4252Z" fill="#34CB79"/>
<path d="M33.2367 19.8849L29.9735 26.3964L28.879 24.719L31.3012 19.8848C31.6961 19.0966 31.6334 18.1529 31.1374 17.4254L27.445 12.0084L28.1957 11.5696C28.5536 11.36 29.0105 11.4644 29.245 11.8091L33.073 17.4254C33.5689 18.1529 33.6316 19.0967 33.2367 19.8849Z" fill="#2FB86E"/>
</g>
<defs>
<clipPath id="clip0">
<rect width="127" height="30" fill="white"/>
</clipPath>
</defs>
</svg>
